<?xml version="1.0" encoding="UTF-8"?> <svg xmlns="http://www.w3.org/2000/svg" id="Laag_1" version="1.1" viewBox="0 0 499 397.8"><defs><style> .st0 { fill: #1d1e1d; } </style></defs><g id="_x38_kIvD7.tif"><g><path class="st0" d="M243.6,38.9l-34.7,10.2c-4.2,16.7-10.8,36.8-27.5,44.9s-15.1,4.3-15.6,5.5l-7,27.2c5.2-1.2,10.5-1.8,15.7-2.8s1.3-.4,1.3,1.3c-6.5,34.4-43.2,109.1,3.7,127.9s69.5-10.2,88.5-35.7c18.2,32.1,59.8,32.9,86.8,10.9,28.2-23,38.7-60.3,33.4-95.7,15.9-.9,32.1-6.3,45.4-15-1.2,29,33,52.5,22.9,81.8-4.4,12.8-19.5,20.1-32.4,16,8.9-31.3-36.4-32.2-32.8-.6,3.1,26.8,46.2,26.1,65.3,19.6,36.9-12.6,50.6-49.1,35.5-84.5-8.6-20.3-38.8-48.2-9.1-64.7,0-1-8.7-17-9.7-18.2s-.1-1.3-1.8-1.3c-7.8,0-28.7,18.8-36.1,23.9-15.6,10.8-33.7,20.8-53.1,21-4.5-16.7-21.8-36.2-40.7-29-13.1,5-15,21.7-9.8,33.1,5.3,11.7,19.2,17.3,31.2,19.2,7.9,21.4-5.6,70.9-31.3,74.5-40.5,5.6-33-53-21.1-75.9s6.6-9.3,6.7-10.3c.4-3.2-2.8-12.2-3.1-16.9-.3-6.3,1.3-11.4,2-17.5-34,14-55.6,54.5-56.9,90.2-.1,3.3,1.3,12.4.9,13.8-1,3.6-15.2,16.4-18.9,19.1-16.8,12.1-46.5,21.7-41.7-10.8l20.9-80.3,31.7-3.2,7.1-27.8-29.9,2,14-51.9ZM499,244.4c-71.9,7.1-143.7,17.6-214.7,31.2-96.1,18.5-193.7,42.5-283.1,82l52.2,40.2c66.8-33.5,138.7-58.4,210.4-79.9,76.4-22.9,154.2-42.4,233.1-54.7l2.1-18.9Z"></path><path class="st0" d="M131.9,0c18.5,3,40,12.7,46.7,31.6,6.6,18.7-1.7,41-23.3,43.1s-33.7-36.7-7.4-41.8c-8-10.5-26.5-11.1-37.9-6.5-26.2,10.7-26.5,53.1-3.3,67.1,4.2,2.6,16.1,7.2,20.8,7.2h20c.2,0,2-2.5,1.5.5-1.3,8.4-6.4,18.7-8.2,27.2-33.3,5.2-79.1,24.6-81.6,63.5-3.1,47.7,45.6,49.3,78.8,34.5,1.3,9.7,4.1,18.6,9.9,26.6.6,3.7-18.5,11.3-22.1,12.6-47.8,17.3-114.9,8.6-125.5-50.1.5-6.4-.7-13.7,0-20s3.4-13.6,5.2-18.2c13.4-34.1,51-55.8,85.5-62.6l-20.5-7C14.3,72.2,52.3,5.3,109.9,0h21.9Z"></path><path class="st0" d="M243.6,38.9l-14,51.9,29.9-2-7.1,27.8-31.7,3.2-20.9,80.3c-4.8,32.4,24.9,22.9,41.7,10.8,3.7-2.7,17.9-15.5,18.9-19.1s-1-10.5-.9-13.8c1.3-35.7,22.9-76.2,56.9-90.2-.7,6.1-2.3,11.2-2,17.5.2,4.6,3.5,13.6,3.1,16.9s-5.5,7.9-6.7,10.3c-12,22.9-19.4,81.6,21.1,75.9,25.7-3.6,39.2-53.1,31.3-74.5-12-1.8-25.9-7.5-31.2-19.2-5.3-11.5-3.4-28.2,9.8-33.1,19-7.2,36.3,12.3,40.7,29,19.4-.2,37.5-10.2,53.1-21s28.3-23.9,36.1-23.9,1.2.7,1.8,1.3c1,1.1,9.8,17.1,9.7,18.2-29.7,16.5.5,44.4,9.1,64.7,15,35.4,1.4,71.9-35.5,84.5s-62.2,7.3-65.3-19.6c-3.6-31.6,41.7-30.7,32.8.6,12.9,4.1,28-3.2,32.4-16,10.1-29.3-24.1-52.8-22.9-81.8-13.3,8.7-29.5,14-45.4,15,5.2,35.4-5.2,72.7-33.4,95.7-26.9,21.9-68.6,21.2-86.8-10.9-19,25.5-56,48.7-88.5,35.7-46.9-18.8-10.2-93.6-3.7-127.9,0-1.7.3-1.6-1.3-1.3-5.2,1-10.5,1.6-15.7,2.8l7-27.2c.6-1.3,13-4.3,15.6-5.5,16.6-8,23.3-28.1,27.5-44.9l34.7-10.2Z"></path><path class="st0" d="M499,244.4l-2.1,18.9c-78.9,12.3-156.7,31.8-233.1,54.7-71.6,21.5-143.5,46.4-210.4,79.9L1.2,357.6c89.5-39.5,187.1-63.5,283.1-82,71-13.6,142.7-24.1,214.7-31.2Z"></path></g></g></svg> 