<?xml version="1.0" encoding="UTF-8"?> <svg xmlns="http://www.w3.org/2000/svg" width="153" height="70" viewBox="0 0 153 70" fill="none"><path d="M141.772 27.7164C137.674 27.7164 134.248 28.4702 131.131 29.7159V50.5194H138.06V33.8148C139.055 33.3675 140.31 33.1188 141.604 33.1188C145.354 33.1188 146.07 35.4167 146.07 39.6732L146.072 50.5194H153.001V38.6409C153 31.9918 150.8 27.7164 141.772 27.7164ZM75.283 19.9675H82.1903V50.5209H75.283V19.9675ZM90.1295 50.5209H98.3181L89.7364 38.2489L97.6091 28.5229H89.742L82.2055 38.4976L90.1295 50.5209ZM113.039 33.043C116.062 33.043 118.064 34.9407 118.064 39.3246C118.064 43.5714 116.483 45.8888 112.754 45.8888C111.683 45.8888 110.333 45.6692 109.644 45.4005V33.7063C110.622 33.2528 111.81 33.043 113.039 33.043ZM102.733 29.7164V59.0749H109.644V50.6908C111.12 50.9626 112.276 51.0271 113.573 51.0271C121.191 51.0271 125.193 46.6309 125.193 39.273C125.193 31.8577 121.256 27.7164 113.09 27.7164C109.435 27.7164 105.612 28.5229 102.733 29.7164ZM31.3961 30.4007V26.9594C30.5775 26.7245 29.6004 26.6068 28.6182 26.6068C24.6331 26.6068 22.6713 29.3208 22.6713 32.0655C22.6713 34.6777 23.626 37.1649 27.2206 42.7776C28.6598 42.5831 30.1081 42.464 31.5596 42.4209C28.4272 36.5661 27.6644 34.5113 27.6644 33.0113C27.6644 31.2682 28.6608 30.3802 30.6867 30.3802C30.9599 30.3797 31.1803 30.3848 31.3961 30.4007ZM20.5337 35.4776C20.2412 34.693 20.0248 33.4299 19.9416 32.5128C16.7685 32.4069 14.3811 34.2293 14.3811 36.819C14.3811 38.8978 15.4334 40.7438 19.8115 44.4839C20.9019 44.1185 22.4087 43.6871 23.6768 43.4092C19.3926 39.3871 18.7298 38.3159 18.7298 37.1127C18.7314 36.2299 19.3398 35.6531 20.5337 35.4776ZM34.3269 30.4007V26.9594C35.1461 26.7245 36.1232 26.6068 37.1049 26.6068C41.09 26.6068 43.0518 29.3208 43.0518 32.0655C43.0518 34.6777 42.097 37.1649 38.502 42.7776C37.063 42.5831 35.6151 42.4641 34.1639 42.4209C37.2958 36.5661 38.0596 34.5113 38.0596 33.0113C38.0596 31.2682 37.0637 30.3802 35.0359 30.3802C34.7627 30.3797 34.5428 30.3848 34.3269 30.4007ZM45.1893 35.4776C45.4813 34.693 45.6982 33.4299 45.781 32.5128C48.955 32.4069 51.3419 34.2293 51.3419 36.819C51.3419 38.8978 50.2892 40.7438 45.9105 44.4839C44.8206 44.1185 43.3128 43.6871 42.0447 43.4092C46.33 39.3871 46.9927 38.3159 46.9927 37.1127C46.9932 36.2299 46.3823 35.6531 45.1893 35.4776ZM32.8613 49.743C36.0699 49.743 39.3399 50.1652 42.744 51.1863L43.9065 47.3381C40.3227 46.2617 36.6024 45.7169 32.8628 45.7209C29.3581 45.7209 25.6386 46.1897 21.8176 47.3381L22.98 51.1863C26.3831 50.1658 29.6522 49.743 32.8613 49.743ZM32.8608 24.7142L29.3246 21.1492L32.8623 17.5856L36.3984 21.1512L32.8608 24.7142Z" fill="#1D1D1B"></path><path d="M10.8282 6.0669C12.5635 3.09446 15.4694 0.647115 18.9396 0.166039C21.7155 -0.18351 24.6219 -0.00847954 27.3105 0.953162C35.4655 3.66306 42.7085 9.4329 46.786 17.126C47.1765 17.8251 47.4797 18.6123 47.6966 19.4424C46.656 19.5299 45.6149 19.7049 44.5743 19.6609C44.0538 19.4864 43.9669 18.8743 43.6632 18.4807C40.3231 12.1428 34.4676 7.33459 27.8752 4.6682C24.4482 3.40051 20.328 2.39537 16.9011 4.36215C13.3014 6.59148 11.9566 11.0061 11.3061 14.9837C10.5687 19.0488 10.9155 23.2889 12.0435 27.2665C12.4335 28.5777 13.0409 29.8454 13.3014 31.2441C12.7377 32.2057 11.3492 32.2492 10.3518 32.5553C8.74651 28.2282 7.40223 23.6825 7.61908 19.0048C7.74859 14.5466 8.57283 9.95697 10.8282 6.0669ZM45.7881 23.3324C49.0414 23.1139 52.381 22.9829 55.5038 24.0755C58.9739 25.2557 62.0967 27.7471 63.6588 31.1126C64.7431 33.3854 65.0031 35.9643 64.5262 38.4121C63.5283 43.1333 61.0993 47.3289 59.7981 51.9626C58.7139 55.5907 58.0628 59.4367 56.328 62.8467C54.8969 65.9502 52.4673 68.7476 49.0845 69.7092C49.0845 69.7092 48.3771 69.982 47.4823 69.982C46.4935 69.982 45.5717 69.7092 45.5717 69.7092C42.7953 68.485 39.8031 67.2179 37.9372 64.6825C38.9783 64.2889 39.9762 63.7649 41.0168 63.5463C43.0559 64.464 44.747 66.2557 47.0897 66.3432C49.3451 66.6063 51.2104 64.9885 52.3378 63.1963C54.9406 59.0882 55.5038 54.1485 57.0659 49.6458C58.1933 46.1933 59.7987 42.9583 60.8829 39.5058C61.6635 36.9264 61.6635 33.9545 60.1455 31.6377C57.847 27.7911 53.0757 26.2614 48.8245 26.5234C48.0003 26.4359 47.0897 26.7854 46.3523 26.3049C46.0918 25.3432 45.9613 24.3376 45.7881 23.3324ZM1.24252 47.2859C-1.61972 41.8221 0.678805 34.5226 5.92693 31.5061C6.49064 32.4678 6.83801 33.5169 7.1412 34.6096C3.84474 36.9259 2.32678 41.5596 4.01894 45.3181C5.79692 49.3832 9.39707 52.3122 13.0841 54.6285C19.4601 58.3441 27.2678 60.3978 34.5544 58.3876C36.1598 57.776 37.2872 59.6117 37.9814 60.7914C30.6511 63.7203 22.2365 62.6272 15.1662 59.4802C9.52708 56.8583 4.14844 52.9243 1.24252 47.2859Z" fill="#1D1D1B"></path></svg> 