<?xml version="1.0" encoding="UTF-8"?> <svg xmlns="http://www.w3.org/2000/svg" id="Laag_1" version="1.1" viewBox="0 0 250.1 349.9"><defs><style> .st0 { fill: #1d1d1b; } </style></defs><g id="WkNMKr"><path class="st0" d="M98.9,90.3l37.2,61.5L227.5.1h-21.8c0,0-70,112.9-70,112.9l-25.6-41.7-11.2,19ZM115.3,43.7l22.2,36.9,11.3-19.3L111.7,0,20.3,151.6h21.6S109.4,43.1,109.4,43.1c.9-1.4,2.4-2,3.2-1.8s1.9,1.1,2.7,2.4ZM61.4,232.9v-37.6c0,0-7.7,0-7.7,0l-.3,28.2-22.4-28c-3.2-.4-6.1-.3-9.3-.1v38.1s7.6,0,7.6,0l.3-28.3,22.4,28.1c3.1.2,6.4.8,9.3-.5ZM118,201.4v-6.2c0,0-33.1,0-33.1,0v6.2s33.1,0,33.1,0ZM176.7,233.4l-15.2-19.6,14.3-18.4h-9.7s-9.5,12.7-9.5,12.7l-9.3-12.8-10.1.2,14,18.2-15,19.6h9.8s10.2-13.8,10.2-13.8l10.5,13.9h10.1ZM214.3,233.3v-31.8s14.5-.1,14.5-.1v-6.2c0,0-36.9,0-36.9,0v6.2s14.2.3,14.2.3v31.8s8.2,0,8.2,0ZM118.1,216.7v-6.3s-33.1,0-33.1,0v6.3s33.1,0,33.1,0ZM118,233.5v-6.2c0,0-33.1,0-33.1,0v6.1s33.1,0,33.1,0ZM135.6,253.1l-11.8,29.4-12.3-29.7h-9.2c0,0,17,38.3,17,38.3h8.7s16.8-38.4,16.8-38.4c-3.1.2-6.1-.6-9.1.4ZM250.1,284.5h-22.9s0-31.9,0-31.9h-8.2c0,0,0,38.6,0,38.6h31.2c0,0,0-6.8,0-6.8ZM31.1,284.5H8.2s0-31.5,0-31.5H0c0,0,0,38.2,0,38.2h31.2c0-.1,0-6.7,0-6.7ZM85,258.8v-5.9s-33.2,0-33.2,0v5.9s33.2,0,33.2,0ZM196.3,258.8c.4-2.7.3-4,0-5.9h-32.7c-.4,2.2-.4,3.9,0,5.9h32.7ZM84.9,274.4v-6.2c0,0-33.1,0-33.1,0v6.3s33.1,0,33.1,0ZM196.5,274.4l-.2-6.3h-32.8c-.3,2.3-.2,4.3,0,6.3h32.8ZM85,291.1v-6s-33.2,0-33.2,0c-.2,2.3-.2,4.1.2,6.2l33-.2ZM196.3,291c.4-2.9.3-4.2,0-5.9h-32.7c-.3,2-.3,3.7,0,5.9h32.7ZM30.9,317.6c3.8-2.3,8-2.4,11.9-1.1s6.5,3.9,7.1,8.1l9,.2c-1.5-12.4-14.2-17.3-27.3-14.7-9.3,1.9-14.9,9.5-15,18.8,0,6.6,1.9,12.3,6.3,16.3,4.7,4.2,10.4,4.9,16.6,4.7,10.1-.2,18.6-5.9,19.4-15.9l-9,.3c-1,5.7-5.3,9.2-10.8,9.4-4.1.2-8-1-10.4-3.6-6.1-6.8-4.1-18.5,2.1-22.4ZM228.1,347.2c5-2.5,6.3-7.9,5.6-12s-4.9-7.4-10.1-8.3l-15.2-2.7c-1.9-.3-3.1-2.2-3-3.7s.9-2.6,2.3-3.4c5.2-2.9,14.3-1.8,16.1,4.5h8.6c-.5-12.2-18.8-15.1-30-9.8-4.4,2.1-6.1,6.8-5.4,11.2s4.2,7.5,9,8.3l15.1,2.7c2.5.4,3.9,2.2,3.9,4.4,0,4.5-6.4,6-13.5,4.9s-6-3-6.6-6.8h-9.1c.2,5.4,3.5,10.4,9.1,12,7.3,2,16.1,2.3,23.2-1.3ZM111.4,349l9.1-.3-17.1-38.3-9.8.2-17,38h9.1c0,0,12.7-30.5,12.7-30.5l13.1,30.8ZM161.9,333.8c3.3,0,5.4,2.5,5.5,5.2l.6,9.4,9.1.4c-2.5-7.9.8-15.3-6.2-18.5,5.2-3,6.3-7.5,5.1-12.7-.8-3.9-5.2-7-10.2-7l-26.4-.2v6.3c0,0,22.8,0,22.8,0,3.3,0,5.4,2.2,5.7,4.7s-.6,5.8-3.6,5.8l-24.9.4v21s8.3,0,8.3,0l.3-14.8h13.6Z"></path></g></svg> 